# xmcd
#
# Track frame offsets:
#	225
#	13086
#	21680
#	35727
#	45726
#	63857
#	76636
#	94644
#	104527
#	123646
#	141021
#	162489
#	170415
#	183507
#	191656
#	205191
#	211150
#	228161
#	235070
#	249553
#
# Disc length: 3561 seconds
# Revision: 1
# Processed by: cddbd v1.5.2PL0 Copyright (c) Steve Scherf et al.
# Submitted via: dBpowerAMP V12.0
#
DISCID=140de614
DTITLE=Kent DuChaine and Leadbessie - Too Many Snakes in the Road
DYEAR=2012
DGENRE=Blues
TTITLE0=Marilyn
TTITLE1=Travelin' Story
TTITLE2=Edgemont Station
TTITLE3=Muddy Waters Story
TTITLE4=Tribute to Muddy
TTITLE5=Bukka White Story(1)
TTITLE6=Aberdeen Missisipi Blues
TTITLE7=Bukka White Story(2)
TTITLE8=Parchman Farm Blues
TTITLE9=Johnny Shines Story
TTITLE10=16 Gauge Steel
TTITLE11=Howlin' Wolf Story
TTITLE12=Little Red Rooster
TTITLE13=Robert Johnson Story
TTITLE14=Last Fair Deal Goin' Down
TTITLE15=Johnny Shines and Robert Johnson Story
TTITLE16=Walkin' Blues
TTITLE17=Robert Johnson Story
TTITLE18=Preachin' Blues
TTITLE19=Sweet Home Chicago
EXTD=
EXTT0=
EXTT1=
EXTT2=
EXTT3=
EXTT4=
EXTT5=
EXTT6=
EXTT7=
EXTT8=
EXTT9=
EXTT10=
EXTT11=
EXTT12=
EXTT13=
EXTT14=
EXTT15=
EXTT16=
EXTT17=
EXTT18=
EXTT19=
PLAYORDER=
